<svg width="26" height="26" viewBox="0 0 26 26" fill="none" xmlns="http://www.w3.org/2000/svg">
<path d="M8.41667 6.58333H13.9167C14.7676 6.58333 15.5836 6.92135 16.1853 7.52303C16.787 8.12471 17.125 8.94076 17.125 9.79167C17.125 10.6426 16.787 11.4586 16.1853 12.0603C15.5836 12.662 14.7676 13 13.9167 13H8.41667V6.58333Z" stroke="#141E42" stroke-width="1.375" stroke-linecap="round" stroke-linejoin="round"/>
<path d="M13.9167 13H14.8333C15.6842 13 16.5003 13.338 17.102 13.9397C17.7037 14.5414 18.0417 15.3574 18.0417 16.2083C18.0417 17.0592 17.7037 17.8753 17.102 18.477C16.5003 19.0786 15.6842 19.4167 14.8333 19.4167H8.41667V13" stroke="#141E42" stroke-width="1.375" stroke-linecap="round" stroke-linejoin="round"/>
</svg>
