<svg width="26" height="26" viewBox="0 0 26 26" fill="none" xmlns="http://www.w3.org/2000/svg">
<path d="M15.75 9.33333H15.7592" stroke="#141E42" stroke-width="1.375" stroke-linecap="round" stroke-linejoin="round"/>
<path d="M17.5833 5.66667H8.41666C6.89788 5.66667 5.66666 6.89788 5.66666 8.41667V17.5833C5.66666 19.1021 6.89788 20.3333 8.41666 20.3333H17.5833C19.1021 20.3333 20.3333 19.1021 20.3333 17.5833V8.41667C20.3333 6.89788 19.1021 5.66667 17.5833 5.66667Z" stroke="#141E42" stroke-width="1.375" stroke-linecap="round" stroke-linejoin="round"/>
<path d="M5.66666 15.75L9.33333 12.0833C9.75138 11.6811 10.2256 11.4693 10.7083 11.4693C11.1911 11.4693 11.6653 11.6811 12.0833 12.0833L16.6667 16.6667" stroke="#141E42" stroke-width="1.375" stroke-linecap="round" stroke-linejoin="round"/>
<path d="M14.8333 14.8333L15.75 13.9167C16.1681 13.5144 16.6423 13.3026 17.125 13.3026C17.6077 13.3026 18.082 13.5144 18.5 13.9167L20.3333 15.75" stroke="#141E42" stroke-width="1.375" stroke-linecap="round" stroke-linejoin="round"/>
</svg>
