<svg width="26" height="26" viewBox="0 0 26 26" fill="none" xmlns="http://www.w3.org/2000/svg">
<path d="M11.1667 14.8333C11.4654 15.1382 11.8219 15.3804 12.2154 15.5458C12.609 15.7111 13.0315 15.7963 13.4583 15.7963C13.8852 15.7963 14.3077 15.7111 14.7012 15.5458C15.0947 15.3804 15.4513 15.1382 15.75 14.8333L19.4167 11.1667C20.0245 10.5589 20.3659 9.73454 20.3659 8.875C20.3659 8.01546 20.0245 7.19112 19.4167 6.58334C18.8089 5.97555 17.9845 5.6341 17.125 5.6341C16.2655 5.6341 15.4411 5.97555 14.8333 6.58334L14.375 7.04167" stroke="#141E42" stroke-width="1.375" stroke-linecap="round" stroke-linejoin="round"/>
<path d="M14.8333 11.1667C14.5346 10.8618 14.1781 10.6196 13.7846 10.4542C13.391 10.2889 12.9685 10.2037 12.5417 10.2037C12.1148 10.2037 11.6923 10.2889 11.2988 10.4542C10.9053 10.6196 10.5487 10.8618 10.25 11.1667L6.58333 14.8333C5.97555 15.4411 5.63409 16.2655 5.63409 17.125C5.63409 17.9845 5.97555 18.8089 6.58333 19.4167C7.19112 20.0245 8.01546 20.3659 8.875 20.3659C9.73454 20.3659 10.5589 20.0245 11.1667 19.4167L11.625 18.9583" stroke="#141E42" stroke-width="1.375" stroke-linecap="round" stroke-linejoin="round"/>
</svg>
