<svg width="26" height="26" viewBox="0 0 26 26" fill="none" xmlns="http://www.w3.org/2000/svg">
<path d="M7.5 15.75H21.25" stroke="#141E42" stroke-width="1.375" stroke-linecap="round" stroke-linejoin="round"/>
<path d="M21.25 19.4167H7.5" stroke="#141E42" stroke-width="1.375" stroke-linecap="round" stroke-linejoin="round"/>
<path d="M15.75 12.0833H21.25" stroke="#141E42" stroke-width="1.375" stroke-linecap="round" stroke-linejoin="round"/>
<path d="M21.25 8.41667H15.75" stroke="#141E42" stroke-width="1.375" stroke-linecap="round" stroke-linejoin="round"/>
<path d="M10.25 10.25H11.1667C11.348 10.25 11.5252 10.3038 11.6759 10.4045C11.8267 10.5052 11.9442 10.6484 12.0136 10.8159C12.0829 10.9834 12.1011 11.1677 12.0657 11.3455C12.0304 11.5233 11.943 11.6867 11.8148 11.8148C11.6866 11.943 11.5233 12.0304 11.3455 12.0657C11.1677 12.1011 10.9834 12.0829 10.8159 12.0136C10.6484 11.9442 10.5052 11.8267 10.4045 11.6759C10.3038 11.5252 10.25 11.348 10.25 11.1667V8.875C10.25 8.38877 10.4432 7.92246 10.787 7.57864C11.1308 7.23482 11.5971 7.04167 12.0833 7.04167" stroke="#141E42" stroke-width="1.375" stroke-linecap="round" stroke-linejoin="round"/>
<path d="M4.75 10.25H5.66667C5.84797 10.25 6.02519 10.3038 6.17594 10.4045C6.32668 10.5052 6.44418 10.6484 6.51356 10.8159C6.58294 10.9834 6.60109 11.1677 6.56572 11.3455C6.53035 11.5233 6.44305 11.6867 6.31485 11.8148C6.18665 11.943 6.02332 12.0304 5.8455 12.0657C5.66768 12.1011 5.48337 12.0829 5.31587 12.0136C5.14837 11.9442 5.00521 11.8267 4.90449 11.6759C4.80376 11.5252 4.75 11.348 4.75 11.1667V8.875C4.75 8.38877 4.94315 7.92246 5.28697 7.57864C5.63079 7.23482 6.0971 7.04167 6.58333 7.04167" stroke="#141E42" stroke-width="1.375" stroke-linecap="round" stroke-linejoin="round"/>
</svg>
